ply
format ascii 1.0
comment spherical coordinates
element vertex 20
property double theta
property double phi
property double rho
element face 12
property list uchar int vertex_index
end_header
0 0 1
41.81031489577857 0 1
41.81031489577857 120 1
41.81031489577857 240 1
70.52877936550931 37.76124390703502 1
70.52877936550931 82.23875609296498 1
70.52877936550931 157.76124390703502 1
70.52877936550931 202.23875609296498 1
70.52877936550931 277.76124390703502 1
70.52877936550931 322.23875609296498 1
109.47122063449069 22.23875609296498 1
109.47122063449069 97.76124390703502 1
109.47122063449069 142.23875609296498 1
109.47122063449069 217.76124390703502 1
109.47122063449069 262.23875609296498 1
109.47122063449069 337.76124390703502 1
138.18968510422144 60 1
138.18968510422144 180 1
138.18968510422144 300 1
180 0 1
5 0 2 5 4 1
5 0 3 7 6 2
5 0 1 9 8 3
5 2 6 12 11 5
5 3 8 14 13 7
5 1 4 10 15 9
5 16 10 4 5 11
5 17 12 6 7 13
5 18 14 8 9 15
5 19 16 11 12 17
5 19 17 13 14 18
5 19 18 15 10 16
