ply
format ascii 1.0
comment spherical coordinates
element vertex 12
property double theta
property double phi
property double rho
element face 20
property list uchar int vertex_index
end_header
0 0 1
63.43494882292198 0 1
63.43494882292198 72 1
63.43494882292198 144 1
63.43494882292198 216 1
63.43494882292198 288 1
116.56505117707802 36 1
116.56505117707802 108 1
116.56505117707802 180 1
116.56505117707802 252 1
116.56505117707802 324 1
180 0 1
3 0 2 1
3 0 3 2
3 0 4 3
3 0 5 4
3 0 1 5
3 1 2 6
3 2 3 7
3 3 4 8
3 4 5 9
3 5 1 10
3 6 2 7
3 7 3 8
3 8 4 9
3 9 5 10
3 10 1 6
3 11 6 7
3 11 7 8
3 11 8 9
3 11 9 10
3 11 10 6
